<svg
   xmlns:dc="http://purl.org/dc/elements/1.1/"
   xmlns:cc="http://creativecommons.org/ns#"
   xmlns:rdf="http://www.w3.org/1999/02/22-rdf-syntax-ns#"
   xmlns:svg="http://www.w3.org/2000/svg"
   xmlns="http://www.w3.org/2000/svg"
   xmlns:sodipodi="http://sodipodi.sourceforge.net/DTD/sodipodi-0.dtd"
   xmlns:inkscape="http://www.inkscape.org/namespaces/inkscape"
   id="svg3017"
   version="1.1"

   inkscape:version="0.48.0 r9654"

   sodipodi:docname="Carl Gustav.svg"
     xmlns:xlink="http://www.w3.org/1999/xlink"
	width="100%" height="100%" viewBox="0 0 300 300">
  <metadata
     id="metadata3023">
    <rdf:RDF>
      <cc:Work

         rdf:about="">
        <dc:format>image/svg+xml</dc:format>
        <dc:type
           rdf:resource="http://purl.org/dc/dcmitype/StillImage" />
        <dc:title />
      </cc:Work>
    </rdf:RDF>
  </metadata>
  <defs
     id="defs3021" />


  <sodipodi:namedview
     pagecolor="#ffffff"
     bordercolor="#666666"
     borderopacity="1"
     objecttolerance="10"
     gridtolerance="10"
     guidetolerance="10"
     inkscape:pageopacity="0"
     inkscape:pageshadow="2"
     inkscape:window-width="1280"
     inkscape:window-height="964"
     id="namedview3019"
     showgrid="false"
     inkscape:zoom="1"
     inkscape:cx="81.004718"
     inkscape:cy="141.92935"
     inkscape:window-x="-4"
     inkscape:window-y="-4"
     inkscape:window-maximized="1"
     inkscape:current-layer="svg3017"
     fit-margin-top="0"
     fit-margin-left="0"
     fit-margin-right="0"
     fit-margin-bottom="0"/>
<g transform="translate(100, 0)">



<circle
	fill="green"
	fill-opacity="1"
	stroke-width="3"
	stroke="black"
	r="80"
	cx="55"
	cy="135"/>



<path
transform="translate(390, 680) scale(4) rotate(180)"
   fill="#e61408"
   d="M 75.673382,105.19244 C 71.365772,105.20171 67.862932,108.88359 67.891412,113.40116 C 67.951812,122.98076 79.983792,129.90867 83.530662,137.47506 C 87.077541,129.90867 99.134628,122.98076 99.195018,113.40116 C 99.2235,108.88359 95.720664,105.20171 91.413048,105.19244 C 87.105432,105.18364 83.543362,108.84969 83.530662,113.37606 C 83.517972,108.84969 79.981002,105.18364 75.673382,105.19244 z "
   id="path2170" />
<path
fill="black"
transform="translate(-278,-420) scale(4)"
d="M 83.543215,104.80333 C 80.358644,110.53478 69.506031,115.78551 69.485463,123.0282 C 69.475751,126.44811 72.631525,129.20357 76.514339,129.20357 C 78.987854,129.20357 81.185777,128.09348 82.438677,126.39202 C 81.915249,131.31639 80.511286,136.81988 75.384698,137.86415 L 83.543215,137.86415 L 91.701732,137.86415 C 86.57515,136.81988 85.171181,131.31639 84.647753,126.39202 C 85.900658,128.09348 88.098576,129.20357 90.572091,129.20357 C 94.454909,129.20357 97.610678,126.44811 97.600967,123.0282 C 97.580401,115.78551 86.727786,110.53478 83.543215,104.80333 z "
/>
<path
transform="translate(620, -200) scale(4) rotate(90)"
fill="orange"
   d="M 83.543209,105.46857 C 83.517099,106.36438 82.985468,109.72388 77.192119,115.28389 C 71.616458,120.63501 69.012799,121.2774 68.230309,121.33375 C 69.012799,121.39009 71.616458,122.0325 77.192119,127.3836 C 82.985468,132.94361 83.517099,136.3031 83.543209,137.19892 C 83.569339,136.30311 84.100959,132.94362 89.894308,127.3836 C 95.469977,122.03249 98.073628,121.39008 98.856122,121.33375 C 98.073628,121.27741 95.469977,120.635 89.894308,115.28389 C 84.100959,109.72389 83.569339,106.36439 83.543209,105.46857 z "
/>
<path
fill="grey"
transform="translate(-480,445) scale(3.7) rotate(270)"
   d="M 83.468215,104.80874 C 79.670455,104.80874 76.593213,107.88598 76.593215,111.68374 C 76.593215,113.6439 77.42644,115.40522 78.743215,116.65874 C 79.760759,117.6274 81.210383,119.82297 81.693215,121.58374 C 80.751391,121.01615 79.903031,120.36928 79.393215,119.83374 C 78.139694,118.51696 76.378367,117.70874 74.418215,117.70874 C 70.620454,117.70874 67.543215,120.78598 67.543215,124.58374 C 67.543214,128.3815 70.620455,131.45874 74.418215,131.45874 C 76.378374,131.45874 78.139695,130.62552 79.393215,129.30874 C 79.930767,128.74405 80.839487,128.02954 81.843215,127.43374 C 81.702423,133.73889 79.538511,137.85874 75.593215,137.85874 C 75.593215,137.85874 91.368215,137.85874 91.368215,137.85874 C 87.412407,137.85874 85.223447,133.71731 85.093215,127.38374 C 86.151375,127.99109 87.134975,128.72232 87.693215,129.30874 C 88.946719,130.62552 90.708079,131.45874 92.668215,131.45874 C 96.465935,131.45874 99.543215,128.3815 99.543215,124.58374 C 99.543215,120.78598 96.465935,117.70874 92.668215,117.70874 C 90.708087,117.70874 88.946719,118.51696 87.693215,119.83374 C 87.162391,120.39135 86.240455,121.05263 85.243215,121.63374 C 85.710951,119.86431 87.190519,117.63708 88.218215,116.65874 C 89.534991,115.40522 90.343215,113.64389 90.343215,111.68374 C 90.343215,107.88598 87.265975,104.80874 83.468215,104.80874 z "
 />

<circle
	fill="white"
	fill-opacity="0.5"
	stroke-width="0.5"
	stroke="black"
	r="100"
	cx="55"
	cy="135"/>

<circle
	fill-opacity="0"
	stroke-width="1"
	stroke="black"
	r="40"
	cx="55"
	cy="135"/>
<g id="rainbow"
transform="rotate(-45) translate(-111.8 0)">
<circle
	fill="purple"
	fill-opacity="1"
	stroke-width="0"
	stroke="black"
	r="40"
	cx="55"
	cy="135"/>


<path
	stroke-width="0"
	fill="blue"
	d="M 55 135 m -28.3, 28.3 
	a 40 25 0 0 1 56.6 0 
	a 40 40 0 0 0 6.4, -8.3 
	a 40 23 0 0 0 -69.3 0
	a 40 40 0 0 0 6.4 8.3"/>
<path
	stroke-width="0"
	fill="green"
	d="M 55 135 m -34.6, 20 
	a 40 23 0 0 1 69.2 0 
	a 40 40 0 0 0 4, -9.6 
	a 40 18 0 0 0 -77.3 0
	a 40 40 0 0 0 4 9.6"/>
<path
	stroke-width="0"
	fill="yellow"
	d="M 55 135 m -38.6, 10.4 
	a 40 18 0 0 1 77.3 0 
	a 40 40 0 0 0 1.4, -10.4 
	a 40 15 0 0 0 -80 0
	a 40 40 0 0 0 1.4 10.4"/>
<path
	stroke-width="0"
	fill="orange"
	d="M 55 135 m -40, 0 
	a 40 15 0 0 1 80 0 
	a 40 40 0 0 0 -1.36, -10.35 
	a 40 23 0 0 0 -77.3 0
	a 40 40 0 0 0 -1.36 10.35"/>
<path
	stroke-width="0"
	fill="red"
	d="M 55 135 m -38.6, -10.35 
	a 40 23 0 0 1 77.3 0
	a 40 40 0 0 0 -77.3 0"/>
</g>
<defs>
<path
id="alid"
d="M 55 135 m -84 0 a 84 84 0 0 1 168 0 z"/>
<path
id="bridge"
d="M 55 135 m -96 0 a 96 96 0 0 0 192 0 z"/>
</defs>
<text font-family="Helvetica" fill="black" font-size="15" x="133" text-anchor="middle">
	<textPath xlink:href="#alid">
<!--&#160;&#160;&#160;&#160;&#160;&#160;&#160;&#160;&#160;&#160;&#160;&#160;&#160;&#160;&#160;&#160;&#160;
-->ÅLIDHEM
	</textPath>
</text>
<text font-family="Helvetica" fill="black" font-size="15" x="150" text-anchor="middle">
	<textPath xlink:href="#bridge">
<!--&#160;&#160;&#160;&#160;&#160;&#160;&#160;&#160;&#160;&#160;&#160;&#160;&#160;&#160;&#160;&#160;&#160;
-->BRIDGE CLUB
	</textPath>
</text>






<!--CARL GUSTAV XVI -->






  <g
     fill="black"
     id="g5460"
     transform="translate(33 96) scale(.3)">
    <g
       transform="translate(168.42105,4.0935673)"
       id="g5374">
      <g
         id="g4531"
         transform="matrix(1.1894626,0,0,1.1894626,-156.46514,-4.9198443)">
        <path
           sodipodi:nodetypes="cccccacccccccccc"
           inkscape:connector-curvature="0"
           id="path4246"
           d="m 6.2200032,50.917878 1.8823694,-4.992371 2.2097384,-4.255791 4.010265,-4.828687 6.87474,-5.974477 c 0,0 5.559978,-3.952315 8.593425,-5.483424 3.675592,-1.855227 11.529664,-4.430965 11.529664,-4.430965 l -2.527027,0.993595 -4.17395,2.373422 -4.665002,2.455265 -6.711056,4.173949 -4.746845,4.17395 -3.519212,3.355528 -3.273686,3.682897 -4.0921073,9.002636 z"
           style="stroke-width:0.5;stroke-linecap:butt;stroke-linejoin:miter;stroke-miterlimit:4;stroke-opacity:1;stroke-dasharray:none" />
        <path
           transform="matrix(0.59791134,0,0,0.62918199,3.8587126,-1.4508748)"
           d="m 55.981978,37.576027 c 0,1.401254 -1.172584,2.537195 -2.61904,2.537195 -1.446456,0 -2.61904,-1.135941 -2.61904,-2.537195 0,-1.401254 1.172584,-2.537195 2.61904,-2.537195 1.446456,0 2.61904,1.135941 2.61904,2.537195 z"
           sodipodi:ry="2.537195"
           sodipodi:rx="2.61904"
           sodipodi:cy="37.576027"
           sodipodi:cx="53.362938"
           id="path3961-51-8-9"
           style="fill-opacity:1;fill-rule:nonzero;stroke-width:0.69999999;stroke-linecap:round;stroke-linejoin:miter;stroke-miterlimit:4;stroke-opacity:1;stroke-dasharray:none"
           sodipodi:type="arc" />
        <path
           sodipodi:nodetypes="aaaacaaacaaaaaaaaa"
           inkscape:connector-curvature="0"
           id="path4070"
           d="m 8.1235492,64.18757 c -0.281641,-0.321686 -0.2520853,-0.93733 0,-1.282665 0.3676848,-0.503696 1.2494215,-0.245486 1.781868,-0.570144 0.3728498,-0.227345 0.6909798,-0.558559 0.9263348,-0.926405 0.259181,-0.405085 0.498779,-1.353749 0.498779,-1.353749 0,0 -0.996807,-0.382833 -1.496761,-0.570144 -0.9007808,-0.337484 -1.9972926,-0.349239 -2.7078497,-0.997629 -0.816217,-0.744806 -1.100994,-1.936549 -1.425184,-2.992886 -0.3242707,-1.0566 -0.4992029,-3.277924 -0.4992029,-3.277924 0,0 0.9963867,0.290137 1.4967611,0.427415 0.9001216,0.246947 1.9666824,0.145486 2.7079203,0.712732 0.8703572,0.666057 0.7658902,2.187617 1.6387142,2.850439 0.917669,0.696877 2.489535,0.08801 3.34943,0.85504 0.796677,0.710638 1.193326,1.926645 1.140147,2.992887 -0.05821,1.167046 -0.63057,2.437432 -1.567702,3.135405 -0.773606,0.57618 -1.985179,0.07243 -2.850509,0.498637 -0.346884,0.170853 -0.486115,0.667987 -0.85497,0.784028 -0.6857631,0.21574 -1.6642199,0.255851 -2.1377758,-0.285037 z"
           style="stroke-width:0.5;stroke-linecap:butt;stroke-linejoin:miter;stroke-miterlimit:4;stroke-opacity:1;stroke-dasharray:none" />
        <g
           id="g3955">
          <path
             style="stroke-width:0.5;stroke-linecap:butt;stroke-linejoin:miter;stroke-miterlimit:4;stroke-opacity:1;stroke-dasharray:none"
             d="m 51.142857,9.5714286 0,-3 -3,0 0,-2 3,0 0,-3 3,0 0,3 3,0 0,2 -3,0 0,3 z"
             id="path3033"
             inkscape:connector-curvature="0"
             sodipodi:nodetypes="ccccccccccccc" />
          <path
             style="fill-opacity:1;fill-rule:nonzero;stroke-width:0.5;stroke-linecap:round;stroke-linejoin:miter;stroke-miterlimit:4;stroke-opacity:1;stroke-dasharray:none"
             d="m 52.59375,9.65625 c -3.123534,0 -5.65625,2.532716 -5.65625,5.65625 0,3.123534 2.532716,5.65625 5.65625,5.65625 3.123534,0 5.65625,-2.532716 5.65625,-5.65625 0,-3.123534 -2.532716,-5.65625 -5.65625,-5.65625 z M 51.151976,10.037994 54.227964,10 l 0,4 L 58,14 l 0,2 -10.848024,-0.03799 0,-2 4,0.07599 z"
             id="path3035"
             inkscape:connector-curvature="0"
             sodipodi:nodetypes="sssssccccccccc" />
        </g>
        <g
           id="g3938">
          <path
             style="stroke-width:0.5;stroke-linecap:butt;stroke-linejoin:miter;stroke-miterlimit:4;stroke-opacity:1;stroke-dasharray:none"
             d="m 14.571429,80.614752 c 0,0 7.571764,-2.413226 11.449456,-3.25261 5.215238,-1.128916 10.517196,-1.881314 15.829372,-2.385248 3.383853,-0.321006 6.79021,-0.431793 10.189138,-0.403723 3.879942,0.03204 7.771168,0.176601 11.621897,0.652898 6.020237,0.744645 11.995221,1.928758 17.870815,3.437117 2.892795,0.742627 8.525661,2.755165 8.525661,2.755165 l 0.581649,-1.670962 c 0,0 -6.152115,-2.247003 -9.324151,-3.03577 -6.123467,-1.522677 -12.381902,-2.512582 -18.648301,-3.25261 -3.452231,-0.40769 -6.9329,-0.577503 -10.408354,-0.650522 -3.541688,-0.07441 -7.097348,-0.104693 -10.625195,0.21684 -6.271932,0.571632 -12.514604,1.606905 -18.648301,3.03577 -3.061662,0.713224 -9.019762,2.754283 -9.019762,2.754283 z"
             id="path3810"
             inkscape:connector-curvature="0"
             sodipodi:nodetypes="caaaaaccaaaaacc" />
          <path
             style="stroke-width:0.5;stroke-linecap:butt;stroke-linejoin:miter;stroke-miterlimit:4;stroke-opacity:1;stroke-dasharray:none"
             d="m 11.640525,72.157964 c 0,0 7.600238,-2.603603 11.496784,-3.556998 5.335631,-1.305507 10.754595,-2.334228 16.213195,-2.948223 4.327275,-0.486741 8.696753,-0.631999 13.050964,-0.576538 3.64642,0.04645 7.298252,0.284097 10.913644,0.761045 6.790809,0.895853 13.575294,2.079004 20.168562,3.935467 3.192113,0.898802 9.32415,3.469451 9.32415,3.469451 l 1.084204,-2.168407 c 0,0 -7.456145,-2.533934 -11.275717,-3.469451 -6.209521,-1.52088 -12.51911,-2.676202 -18.862767,-3.469452 -3.686657,-0.461003 -7.406587,-0.668746 -11.12117,-0.74515 -4.028206,-0.08286 -8.072082,-0.06873 -12.083161,0.311469 -6.198812,0.587574 -12.363597,1.638791 -18.431461,3.035769 -3.871743,0.891374 -11.423684,3.400579 -11.423684,3.400579 z"
             id="path3812"
             inkscape:connector-curvature="0"
             sodipodi:nodetypes="caaaaaccaaaaacc" />
          <path
             style="stroke-width:0.5;stroke-linecap:butt;stroke-linejoin:miter;stroke-miterlimit:4;stroke-opacity:1;stroke-dasharray:none"
             d="m 47.186882,69.062294 5,-2 5,2 -5,2 z"
             id="path3814"
             inkscape:connector-curvature="0"
             sodipodi:nodetypes="ccccc" />
          <path
             style="stroke-width:0.5;stroke-linecap:butt;stroke-linejoin:miter;stroke-miterlimit:4;stroke-opacity:1;stroke-dasharray:none"
             d="m 27.014574,70.117801 8.901107,-1.330524 0.443509,2.967036 -8.901107,1.330524 z"
             id="path3816"
             inkscape:connector-curvature="0"
             sodipodi:nodetypes="ccccc" />
          <path
             style="stroke-width:0.5;stroke-linecap:butt;stroke-linejoin:miter;stroke-miterlimit:4;stroke-opacity:1;stroke-dasharray:none"
             d="m 88,75 4,0 -1,3 z"
             id="path3818"
             inkscape:connector-curvature="0"
             sodipodi:nodetypes="cccc" />
          <path
             style="stroke-width:0.5;stroke-linecap:butt;stroke-linejoin:miter;stroke-miterlimit:4;stroke-opacity:1;stroke-dasharray:none"
             d="m 77.697945,70.773349 -8.849434,-1.639368 -0.546456,2.949813 8.849434,1.639365 z"
             id="path3816-1"
             inkscape:connector-curvature="0"
             sodipodi:nodetypes="ccccc" />
          <path
             style="stroke-width:0.5;stroke-linecap:butt;stroke-linejoin:miter;stroke-miterlimit:4;stroke-opacity:1;stroke-dasharray:none"
             d="m 16.571432,73.928574 -4,0 1,3 z"
             id="path3818-7"
             inkscape:connector-curvature="0"
             sodipodi:nodetypes="cccc" />
          <path
             sodipodi:type="arc"
             style="fill-opacity:1;fill-rule:nonzero;stroke-width:0.5;stroke-linecap:round;stroke-linejoin:miter;stroke-miterlimit:4;stroke-opacity:1;stroke-dasharray:none"
             id="path3867"
             sodipodi:cx="4.7142859"
             sodipodi:cy="73.928574"
             sodipodi:rx="1"
             sodipodi:ry="1.0714285"
             d="m 5.7142859,73.928574 c 0,0.591733 -0.4477153,1.071428 -1,1.071428 -0.5522848,0 -1,-0.479695 -1,-1.071428 0,-0.591734 0.4477152,-1.071429 1,-1.071429 0.5522847,0 1,0.479695 1,1.071429 z"
             transform="translate(17.142857,-2.5714286)" />
          <path
             sodipodi:type="arc"
             style="fill-opacity:1;fill-rule:nonzero;stroke-width:0.5;stroke-linecap:round;stroke-linejoin:miter;stroke-miterlimit:4;stroke-opacity:1;stroke-dasharray:none"
             id="path3867-4"
             sodipodi:cx="4.7142859"
             sodipodi:cy="73.928574"
             sodipodi:rx="1"
             sodipodi:ry="1.0714285"
             d="m 5.7142859,73.928574 c 0,0.591733 -0.4477153,1.071428 -1,1.071428 -0.5522848,0 -1,-0.479695 -1,-1.071428 0,-0.591734 0.4477152,-1.071429 1,-1.071429 0.5522847,0 1,0.479695 1,1.071429 z"
             transform="translate(17.857143,0.07142686)" />
          <path
             sodipodi:type="arc"
             style="fill-opacity:1;fill-rule:nonzero;stroke-width:0.5;stroke-linecap:round;stroke-linejoin:miter;stroke-miterlimit:4;stroke-opacity:1;stroke-dasharray:none"
             id="path3867-0"
             sodipodi:cx="4.7142859"
             sodipodi:cy="73.928574"
             sodipodi:rx="1"
             sodipodi:ry="1.0714285"
             d="m 5.7142859,73.928574 c 0,0.591733 -0.4477153,1.071428 -1,1.071428 -0.5522848,0 -1,-0.479695 -1,-1.071428 0,-0.591734 0.4477152,-1.071429 1,-1.071429 0.5522847,0 1,0.479695 1,1.071429 z"
             transform="matrix(-1,0,0,1,88.071429,-1.9642871)" />
          <path
             sodipodi:type="arc"
             style="fill-opacity:1;fill-rule:nonzero;stroke-width:0.5;stroke-linecap:round;stroke-linejoin:miter;stroke-miterlimit:4;stroke-opacity:1;stroke-dasharray:none"
             id="path3867-4-9"
             sodipodi:cx="4.7142859"
             sodipodi:cy="73.928574"
             sodipodi:rx="1"
             sodipodi:ry="1.0714285"
             d="m 5.7142859,73.928574 c 0,0.591733 -0.4477153,1.071428 -1,1.071428 -0.5522848,0 -1,-0.479695 -1,-1.071428 0,-0.591734 0.4477152,-1.071429 1,-1.071429 0.5522847,0 1,0.479695 1,1.071429 z"
             transform="matrix(-1,0,0,1,87.357143,0.67856786)" />
          <path
             sodipodi:type="arc"
             style="fill-opacity:1;fill-rule:nonzero;stroke-width:0.5;stroke-linecap:round;stroke-linejoin:miter;stroke-miterlimit:4;stroke-opacity:1;stroke-dasharray:none"
             id="path3867-48"
             sodipodi:cx="4.7142859"
             sodipodi:cy="73.928574"
             sodipodi:rx="1"
             sodipodi:ry="1.0714285"
             d="m 5.7142859,73.928574 c 0,0.591733 -0.4477153,1.071428 -1,1.071428 -0.5522848,0 -1,-0.479695 -1,-1.071428 0,-0.591734 0.4477152,-1.071429 1,-1.071429 0.5522847,0 1,0.479695 1,1.071429 z"
             transform="matrix(0.9755577,0.21974343,-0.21974343,0.9755577,53.302508,-5.09656)" />
          <path
             sodipodi:type="arc"
             style="fill-opacity:1;fill-rule:nonzero;stroke-width:0.5;stroke-linecap:round;stroke-linejoin:miter;stroke-miterlimit:4;stroke-opacity:1;stroke-dasharray:none"
             id="path3867-4-8"
             sodipodi:cx="4.7142859"
             sodipodi:cy="73.928574"
             sodipodi:rx="1"
             sodipodi:ry="1.0714285"
             d="m 5.7142859,73.928574 c 0,0.591733 -0.4477153,1.071428 -1,1.071428 -0.5522848,0 -1,-0.479695 -1,-1.071428 0,-0.591734 0.4477152,-1.071429 1,-1.071429 0.5522847,0 1,0.479695 1,1.071429 z"
             transform="matrix(0.9755577,0.21974343,-0.21974343,0.9755577,53.418585,-2.3613428)" />
          <path
             sodipodi:type="arc"
             style="fill-opacity:1;fill-rule:nonzero;stroke-width:0.5;stroke-linecap:round;stroke-linejoin:miter;stroke-miterlimit:4;stroke-opacity:1;stroke-dasharray:none"
             id="path3867-48-2"
             sodipodi:cx="4.7142859"
             sodipodi:cy="73.928574"
             sodipodi:rx="1"
             sodipodi:ry="1.0714285"
             d="m 5.7142859,73.928574 c 0,0.591733 -0.4477153,1.071428 -1,1.071428 -0.5522848,0 -1,-0.479695 -1,-1.071428 0,-0.591734 0.4477152,-1.071429 1,-1.071429 0.5522847,0 1,0.479695 1,1.071429 z"
             transform="matrix(-0.97531225,0.22083031,0.22083031,0.97531225,51.61446,-4.7978875)" />
          <path
             sodipodi:type="arc"
             style="fill-opacity:1;fill-rule:nonzero;stroke-width:0.5;stroke-linecap:round;stroke-linejoin:miter;stroke-miterlimit:4;stroke-opacity:1;stroke-dasharray:none"
             id="path3867-4-8-4"
             sodipodi:cx="4.7142859"
             sodipodi:cy="73.928574"
             sodipodi:rx="1"
             sodipodi:ry="1.0714285"
             d="m 5.7142859,73.928574 c 0,0.591733 -0.4477153,1.071428 -1,1.071428 -0.5522848,0 -1,-0.479695 -1,-1.071428 0,-0.591734 0.4477152,-1.071429 1,-1.071429 0.5522847,0 1,0.479695 1,1.071429 z"
             transform="matrix(-0.97531225,0.22083031,0.22083031,0.97531225,51.50143,-2.0625428)" />
        </g>
        <path
           sodipodi:nodetypes="caaaacaaaacaaacaaacaaacaaaacaaaacaaaaccaaaacaaacaaacaaaccaaacaaacaaacaacc"
           inkscape:connector-curvature="0"
           id="path3959"
           d="m 8.6087766,64.857143 c 0,0 1.1704563,1.428604 1.9626524,1.857143 0.872469,0.471963 1.904002,0.641364 2.894758,0.689876 0.991721,0.04856 2.024355,-0.04798 2.951181,-0.404162 0.855378,-0.32872 1.633349,-0.890357 2.272508,-1.547019 0.440895,-0.452969 1.02441,-1.595838 1.02441,-1.595838 0,0 1.105886,0.662172 1.714285,0.857143 0.872275,0.279534 1.800233,0.487816 2.714286,0.428571 0.842045,-0.05458 1.661667,-0.362327 2.428572,-0.714286 0.852018,-0.39102 1.67153,-0.892963 2.360944,-1.528211 0.543756,-0.501034 1.353341,-1.757503 1.353341,-1.757503 0,0 1.553059,1.249974 2.471789,1.590237 0.933076,0.345575 1.970269,0.539541 2.956783,0.409763 1.287837,-0.169418 2.546986,-0.741147 3.590236,-1.515005 0.668222,-0.495672 1.595838,-1.919168 1.595838,-1.919168 0,0 1.265425,1.439127 2.09964,1.862745 0.999352,0.507476 2.164898,0.716868 3.285714,0.714285 1.317074,-0.003 2.729046,-0.17737 3.857143,-0.857143 0.933513,-0.562521 2.118448,-2.490596 2.118448,-2.490596 0,0 1.833114,2.160511 3.073228,2.757503 1.072741,0.51642 2.332721,0.630546 3.52261,0.590236 1.027365,-0.0348 2.054212,-0.311577 3,-0.714285 0.72919,-0.310483 2,-1.285715 2,-1.285715 0,0 0.932795,1.097962 1.490596,1.547019 0.812022,0.653719 1.6717,1.317916 2.663464,1.639055 0.687427,0.222593 1.442676,0.233487 2.161665,0.161666 0.777119,-0.07763 1.542237,-0.315797 2.255703,-0.633454 0.845932,-0.376635 2.34774,-1.484995 2.34774,-1.484995 0,0 1.126776,1.794897 1.924769,2.466187 0.706167,0.594045 1.556534,1.043934 2.441777,1.304522 0.800885,0.235756 1.666012,0.293133 2.496198,0.204882 0.632726,-0.06726 1.228959,-0.335696 1.827132,-0.552621 C 83.988484,64.748567 85,64.285714 85,64.285714 c 0,0 1.282158,1.895261 2.142858,2.627852 0.633598,0.539291 1.374191,0.979454 2.161664,1.248099 0.630673,0.215153 1.31547,0.296128 1.981192,0.266906 0.931067,-0.04087 1.918553,-0.151857 2.727492,-0.614645 0.906505,-0.518606 2.142857,-2.285714 2.142857,-2.285714 l -1.584634,-0.956783 c 0,0 -0.57989,1.229777 -1.118448,1.590236 -0.773956,0.51801 -1.795946,0.672016 -2.72549,0.614646 -0.8985,-0.05545 -1.812934,-0.384708 -2.541417,-0.913567 -0.756684,-0.549332 -1.233683,-1.41737 -1.719887,-2.216084 -0.369088,-0.606321 -0.894758,-1.932374 -0.894758,-1.932374 0,0 -1.554654,1.330781 -2.47739,1.738695 -0.875054,0.386834 -1.848393,0.719673 -2.800721,0.627851 -0.904889,-0.08725 -1.786494,-0.528432 -2.4982,-1.094038 -1.158131,-0.920389 -2.652261,-3.558223 -2.652261,-3.558223 0,0 -1.283395,1.448023 -2.124049,1.881553 -1.200874,0.619295 -2.606928,1.068438 -3.949179,0.913565 -0.974598,-0.112451 -1.863084,-0.701222 -2.641058,-1.29892 C 65.452445,60.174836 64,58.142857 64,58.142857 c 0,0 -1.681278,1.631298 -2.714286,2.142857 C 60.427768,60.71058 59.460022,61.047177 58.503802,61 57.477883,60.949385 56.421997,60.571415 55.609044,59.943577 54.664574,59.21417 53.571429,57 53.571429,57 l -2.714286,0 c 0,0 -1.002384,2.366988 -1.981192,3.110843 -0.679044,0.516046 -1.595541,0.788419 -2.44738,0.7463 C 45.191987,60.796 44.018775,60.132118 43,59.428571 42.029859,58.75861 40.571429,56.857143 40.571429,56.857143 c 0,0 -0.668414,2.046733 -1.360945,2.832733 -0.771048,0.875115 -1.795328,1.666485 -2.937975,1.900361 -1.281816,0.262359 -2.67696,-0.124654 -3.868347,-0.665468 -0.995746,-0.452006 -2.547019,-2.067626 -2.547019,-2.067626 0,0 -0.870571,2.186892 -1.714286,2.949179 -1.087577,0.982613 -2.552142,1.624698 -4.005601,1.813925 -0.893378,0.116311 -1.889161,0.0098 -2.665468,-0.447379 -1.007761,-0.593468 -2.186074,-2.744297 -2.186074,-2.744297 0,0 -0.894067,3.228377 -2.086433,4.272509 -0.999762,0.875471 -2.453261,1.286931 -3.781913,1.261305 -1.197043,-0.02309 -3.360945,-1.266907 -3.360945,-1.266907 z"
           style="stroke-width:0.5;stroke-linecap:butt;stroke-linejoin:miter;stroke-miterlimit:4;stroke-opacity:1;stroke-dasharray:none" />
        <path
           transform="translate(-0.81844999,-0.16369)"
           d="m 55.981978,37.576027 c 0,1.401254 -1.172584,2.537195 -2.61904,2.537195 -1.446456,0 -2.61904,-1.135941 -2.61904,-2.537195 0,-1.401254 1.172584,-2.537195 2.61904,-2.537195 1.446456,0 2.61904,1.135941 2.61904,2.537195 z"
           sodipodi:ry="2.537195"
           sodipodi:rx="2.61904"
           sodipodi:cy="37.576027"
           sodipodi:cx="53.362938"
           id="path3961"
           style="fill-opacity:1;fill-rule:nonzero;stroke-width:0.5;stroke-linecap:round;stroke-linejoin:miter;stroke-miterlimit:4;stroke-opacity:1;stroke-dasharray:none"
           sodipodi:type="arc" />
        <path
           sodipodi:nodetypes="ccaccac"
           inkscape:connector-curvature="0"
           id="path3963"
           d="m 49.59807,44.69654 0,-3.43749 c 0,0 1.816265,0.811447 2.7799,0.794946 0.861048,-0.01474 2.45818,-0.794946 2.45818,-0.794946 l -0.0017,3.3869 c 0,0 -1.563639,-1.307366 -2.507643,-1.316332 -1.017274,-0.0097 -2.728734,1.366922 -2.728734,1.366922 z"
           style="stroke-width:0.5;stroke-linecap:butt;stroke-linejoin:miter;stroke-miterlimit:4;stroke-opacity:1;stroke-dasharray:none" />
        <path
           sodipodi:nodetypes="ccccc"
           inkscape:connector-curvature="0"
           id="path3965"
           d="m 50,33 5,0 0,1 -5,0 z"
           style="stroke-width:0.5;stroke-linecap:butt;stroke-linejoin:miter;stroke-miterlimit:4;stroke-opacity:1;stroke-dasharray:none" />
        <path
           transform="matrix(0.88193685,0,0,0.90093746,5.4842514,-4.3844524)"
           d="m 55.981978,37.576027 c 0,1.401254 -1.172584,2.537195 -2.61904,2.537195 -1.446456,0 -2.61904,-1.135941 -2.61904,-2.537195 0,-1.401254 1.172584,-2.537195 2.61904,-2.537195 1.446456,0 2.61904,1.135941 2.61904,2.537195 z"
           sodipodi:ry="2.537195"
           sodipodi:rx="2.61904"
           sodipodi:cy="37.576027"
           sodipodi:cx="53.362938"
           id="path3961-5"
           style="fill-opacity:1;fill-rule:nonzero;stroke-width:0.56092387;stroke-linecap:round;stroke-linejoin:miter;stroke-miterlimit:4;stroke-opacity:1;stroke-dasharray:none"
           sodipodi:type="arc" />
        <path
           transform="matrix(0.66661522,0,0,0.70147907,17.032317,-3.0239391)"
           d="m 55.981978,37.576027 c 0,1.401254 -1.172584,2.537195 -2.61904,2.537195 -1.446456,0 -2.61904,-1.135941 -2.61904,-2.537195 0,-1.401254 1.172584,-2.537195 2.61904,-2.537195 1.446456,0 2.61904,1.135941 2.61904,2.537195 z"
           sodipodi:ry="2.537195"
           sodipodi:rx="2.61904"
           sodipodi:cy="37.576027"
           sodipodi:cx="53.362938"
           id="path3961-51"
           style="fill-opacity:1;fill-rule:nonzero;stroke-width:0.69999999;stroke-linecap:round;stroke-linejoin:miter;stroke-miterlimit:4;stroke-opacity:1;stroke-dasharray:none"
           sodipodi:type="arc" />
        <path
           sodipodi:nodetypes="cacaaaaaccaaaaaaasscaaaacc"
           inkscape:connector-curvature="0"
           id="path3992"
           d="m 46.487814,46.426642 c 0,0 -0.03886,-6.796228 0.156323,-10.186521 0.200564,-3.483818 1.04168,-10.416805 1.04168,-10.416805 0,0 -1.571803,0.0096 -2.314845,0.231485 -1.679732,0.50159 -3.249574,1.39491 -4.663071,2.431788 -1.465858,1.075287 -2.696967,2.456086 -3.857676,3.855276 -1.003495,1.209675 -1.979991,2.476292 -2.659672,3.893456 -0.575446,1.199827 -0.944312,2.506574 -1.161024,3.819495 -0.327219,1.982409 -0.193303,6.024599 -0.193303,6.024599 l -1.0071,-0.0012 c 0,0 -0.380001,-3.952682 -0.115742,-5.902856 0.199972,-1.47575 0.645345,-2.932031 1.273165,-4.282464 0.681172,-1.465193 1.652849,-2.789134 2.662072,-4.05098 0.971401,-1.214558 2.067189,-2.336012 3.240783,-3.356526 1.055638,-0.917944 2.204341,-1.732708 3.394707,-2.467569 0.674066,-0.416129 1.374891,-0.798584 2.110571,-1.092358 0.611868,-0.244333 1.251073,-0.42749 1.898337,-0.55049 0.526109,-0.09998 1.272348,-0.136372 1.599579,-0.149736 0.327231,-0.01336 0.622762,-2.064995 0.836486,-2.067232 0.213724,-0.0022 1.082219,-0.0011 1.082219,-0.0011 0,0 -0.507689,2.210303 -0.687895,3.328987 -0.325801,2.022518 -0.510846,4.065751 -0.709237,6.104714 -0.156735,1.610839 -0.278112,3.225212 -0.379927,4.840453 -0.102078,1.619413 -0.174418,3.240752 -0.231485,4.862375 -0.06018,1.710066 -0.116942,5.132041 -0.116942,5.132041 z"
           style="stroke-width:0.5;stroke-linecap:butt;stroke-linejoin:miter;stroke-miterlimit:4;stroke-opacity:1;stroke-dasharray:none" />
        <path
           transform="matrix(0.44391569,0,0,0.48709295,28.691255,35.979523)"
           d="m 55.981978,37.576027 c 0,1.401254 -1.172584,2.537195 -2.61904,2.537195 -1.446456,0 -2.61904,-1.135941 -2.61904,-2.537195 0,-1.401254 1.172584,-2.537195 2.61904,-2.537195 1.446456,0 2.61904,1.135941 2.61904,2.537195 z"
           sodipodi:ry="2.537195"
           sodipodi:rx="2.61904"
           sodipodi:cy="37.576027"
           sodipodi:cx="53.362938"
           id="path3961-7"
           style="fill-opacity:1;fill-rule:nonzero;stroke-width:0.69999999;stroke-linecap:round;stroke-linejoin:miter;stroke-miterlimit:4;stroke-opacity:1;stroke-dasharray:none"
           sodipodi:type="arc" />
        <path
           transform="matrix(0.44391569,0,0,0.45805053,5.8971599,38.943226)"
           d="m 55.981978,37.576027 c 0,1.401254 -1.172584,2.537195 -2.61904,2.537195 -1.446456,0 -2.61904,-1.135941 -2.61904,-2.537195 0,-1.401254 1.172584,-2.537195 2.61904,-2.537195 1.446456,0 2.61904,1.135941 2.61904,2.537195 z"
           sodipodi:ry="2.537195"
           sodipodi:rx="2.61904"
           sodipodi:cy="37.576027"
           sodipodi:cx="53.362938"
           id="path3961-7-1"
           style="fill-opacity:1;fill-rule:nonzero;stroke-width:0.69999999;stroke-linecap:round;stroke-linejoin:miter;stroke-miterlimit:4;stroke-opacity:1;stroke-dasharray:none"
           sodipodi:type="arc" />
        <path
           sodipodi:nodetypes="ccccc"
           inkscape:connector-curvature="0"
           id="path3965-5"
           d="m 50.657325,25.796033 3.815907,0 0,0.763182 -3.815907,0 z"
           style="stroke-width:0.38159066;stroke-linecap:butt;stroke-linejoin:miter;stroke-miterlimit:4;stroke-opacity:1;stroke-dasharray:none" />
        <path
           sodipodi:nodetypes="caaaaccaaaacc"
           inkscape:connector-curvature="0"
           id="path4066"
           d="m 11.116436,52.073506 c 0,0 1.725913,-4.456046 2.987244,-6.468362 1.509069,-2.407555 3.489743,-4.49285 5.407235,-6.589714 1.254564,-1.371922 2.583868,-2.679272 3.978766,-3.908239 1.050932,-0.925918 2.193308,-1.742639 3.298681,-2.602832 1.046128,-0.81409 3.154745,-2.4211 3.154745,-2.4211 l 2.02771,-2.243606 c 0,0 -5.868326,3.712457 -8.597798,5.848979 -1.457014,1.140493 -2.822263,2.399532 -4.133034,3.705478 -1.405826,1.400652 -2.781634,2.844292 -3.990515,4.418071 -1.27628,1.661521 -2.441358,3.420903 -3.420442,5.273181 -0.746276,1.41184 -1.8527396,4.41807 -1.8527396,4.41807 z"
           style="stroke-width:0.5;stroke-linecap:butt;stroke-linejoin:miter;stroke-miterlimit:4;stroke-opacity:1;stroke-dasharray:none" />
        <path
           sodipodi:nodetypes="caaaaaacaaacaaaaaacacaacaacac"
           inkscape:connector-curvature="0"
           id="path4068"

           d="m 50.451516,56.634095 c 0,0 -0.88001,0.870136 -1.425184,1.140147 -0.702098,0.347731 -1.498879,0.627072 -2.280295,0.570073 -0.871075,-0.06354 -1.777515,-0.40907 -2.422812,-0.997628 -0.832089,-0.758926 -1.438064,-1.874167 -1.567703,-2.992887 -0.09882,-0.852729 0.216113,-1.748528 0.64158,-2.494107 0.449495,-0.787686 1.065933,-1.629612 1.923751,-1.923963 1.086817,-0.372929 3.420442,0.427555 3.420442,0.427555 0,0 0.0041,-2.846831 0.85511,-3.847997 0.662736,-0.779713 1.827068,-1.145315 2.850369,-1.140147 0.873378,0.0044 1.836595,0.350204 2.422812,0.997629 0.998699,1.102975 1.282666,4.275552 1.282666,4.275552 0,0 2.320956,-0.601413 3.420441,-0.285037 0.684806,0.197052 1.312397,0.691461 1.710222,1.282666 0.521068,0.774355 0.774746,1.776574 0.712592,2.707849 -0.05816,0.871451 -0.434039,1.755598 -0.997629,2.422814 -0.578401,0.684751 -1.405701,1.228922 -2.280295,1.425183 -0.793442,0.17805 -1.640607,-0.06276 -2.422813,-0.285037 -0.756419,-0.214949 -2.137776,-0.997628 -2.137776,-0.997628 0,0 0.424038,-0.708246 0.712592,-0.997629 0.660867,-0.662765 2.280154,-1.638574 2.280154,-1.638574 0,0 -1.276186,-0.546592 -1.852598,-0.926758 -0.675343,-0.445414 -1.40379,-0.894705 -1.85274,-1.567702 -0.608643,-0.912384 -0.997628,-3.135405 -0.997628,-3.135405 0,0 -0.251351,2.109839 -0.783817,2.993099 -0.399283,0.662334 -1.049702,1.165653 -1.710361,1.567702 -0.648412,0.394594 -2.137918,0.783957 -2.137918,0.783957 0,0 1.288503,0.689142 1.781727,1.211089 0.38051,0.402668 0.855111,1.425184 0.855111,1.425184 z"
           style="stroke-width:0.5;stroke-linecap:butt;stroke-linejoin:miter;stroke-miterlimit:4;stroke-opacity:1;stroke-dasharray:none" />
        <path
           sodipodi:nodetypes="aacaaaaaaccaaaaacaacaacaccacac"
           inkscape:connector-curvature="0"
           id="path4072"

           d="m 28.0625,47.297265 c -0.843857,0.185288 -1.739132,0.710983 -2.125,1.483985 -0.661046,1.32426 0.15625,4.4375 0.15625,4.4375 0,0 -2.602966,-0.69875 -3.71875,-0.15625 -0.94636,0.460126 -1.591918,1.540789 -1.84375,2.5625 -0.231625,0.939729 -0.02933,2.010704 0.40625,2.875 0.421011,0.835379 1.185124,1.50931 2,1.96875 0.514974,0.29035 1.133032,0.51772 1.71875,0.4375 1.13459,-0.155393 1.836204,-1.636142 2.978907,-1.711459 0.513262,-0.03383 1.427343,0.586459 1.427343,0.586459 L 31.34375,59.625 c 0,0 0.770383,-1.318519 1.4375,-1.4375 1.027789,-0.183307 1.806242,1.428815 2.84375,1.3125 1.018694,-0.114206 1.920618,-0.98978 2.4375,-1.875 0.482828,-0.826898 0.592517,-1.904501 0.40625,-2.84375 -0.215182,-1.085056 -0.726026,-2.310473 -1.6875,-2.857482 -1.403367,-0.798412 -4.84375,0.01373 -4.84375,0.01373 0,0 0.03024,-3.155286 -1,-4.125 -0.708949,-0.6673 -1.924053,-0.724035 -2.875,-0.515233 z m 0.651172,3.847396 c 0,0 0.859124,1.683892 1.505078,2.355339 0.518866,0.539343 1.188135,0.920303 1.84375,1.28125 0.633853,0.348966 2,0.84375 2,0.84375 0,0 -1.108419,0.487512 -1.5625,0.875 -0.754347,0.643719 -1.84375,2.334803 -1.84375,2.334803 l -1.59375,0.28125 c 0,0 -0.865308,-1.210508 -1.470183,-1.616053 -0.634355,-0.42531 -2.153384,-0.782683 -2.153384,-0.782683 0,0 2.027609,-1.56269 2.623567,-2.654817 0.47735,-0.874772 0.651172,-2.917839 0.651172,-2.917839 z"
           style="stroke-width:0.5;stroke-linecap:butt;stroke-linejoin:miter;stroke-miterlimit:4;stroke-opacity:1;stroke-dasharray:none" />
        <path
           transform="matrix(0.44391569,0,0,0.45805053,-15.63625,43.626845)"
           d="m 55.981978,37.576027 c 0,1.401254 -1.172584,2.537195 -2.61904,2.537195 -1.446456,0 -2.61904,-1.135941 -2.61904,-2.537195 0,-1.401254 1.172584,-2.537195 2.61904,-2.537195 1.446456,0 2.61904,1.135941 2.61904,2.537195 z"
           sodipodi:ry="2.537195"
           sodipodi:rx="2.61904"
           sodipodi:cy="37.576027"
           sodipodi:cx="53.362938"
           id="path3961-7-1-2"
           style="fill-opacity:1;fill-rule:nonzero;stroke-width:0.69999999;stroke-linecap:round;stroke-linejoin:miter;stroke-miterlimit:4;stroke-opacity:1;stroke-dasharray:none"
           sodipodi:type="arc" />
        <path
           sodipodi:nodetypes="ccccccc"
           inkscape:connector-curvature="0"
           id="path4095"
           d="m 29.985259,45.037665 -0.07122,-3.774866 -1.923045,0.783463 -2.635284,-0.641015 0.07122,4.558329 2.20794,-1.709374 z"
           style="stroke-width:0.69999999;stroke-linecap:butt;stroke-linejoin:miter;stroke-miterlimit:4;stroke-opacity:1;stroke-dasharray:none" />
        <path
           transform="translate(-25.300724,-0.23054199)"
           d="m 55.981978,37.576027 c 0,1.401254 -1.172584,2.537195 -2.61904,2.537195 -1.446456,0 -2.61904,-1.135941 -2.61904,-2.537195 0,-1.401254 1.172584,-2.537195 2.61904,-2.537195 1.446456,0 2.61904,1.135941 2.61904,2.537195 z"
           sodipodi:ry="2.537195"
           sodipodi:rx="2.61904"
           sodipodi:cy="37.576027"
           sodipodi:cx="53.362938"
           id="path3961-76"
           style="fill-opacity:1;fill-rule:nonzero;stroke-width:0.5;stroke-linecap:round;stroke-linejoin:miter;stroke-miterlimit:4;stroke-opacity:1;stroke-dasharray:none"
           sodipodi:type="arc" />
        <path
           transform="translate(-41.753443,0.98026416)"
           d="m 55.981978,37.576027 c 0,1.401254 -1.172584,2.537195 -2.61904,2.537195 -1.446456,0 -2.61904,-1.135941 -2.61904,-2.537195 0,-1.401254 1.172584,-2.537195 2.61904,-2.537195 1.446456,0 2.61904,1.135941 2.61904,2.537195 z"
           sodipodi:ry="2.537195"
           sodipodi:rx="2.61904"
           sodipodi:cy="37.576027"
           sodipodi:cx="53.362938"
           id="path3961-1"
           style="fill-opacity:1;fill-rule:nonzero;stroke-width:0.5;stroke-linecap:round;stroke-linejoin:miter;stroke-miterlimit:4;stroke-opacity:1;stroke-dasharray:none"
           sodipodi:type="arc" />
        <path
           transform="translate(-30.35762,-9.0623047)"
           d="m 55.981978,37.576027 c 0,1.401254 -1.172584,2.537195 -2.61904,2.537195 -1.446456,0 -2.61904,-1.135941 -2.61904,-2.537195 0,-1.401254 1.172584,-2.537195 2.61904,-2.537195 1.446456,0 2.61904,1.135941 2.61904,2.537195 z"
           sodipodi:ry="2.537195"
           sodipodi:rx="2.61904"
           sodipodi:cy="37.576027"
           sodipodi:cx="53.362938"
           id="path3961-4"
           style="fill-opacity:1;fill-rule:nonzero;stroke-width:0.5;stroke-linecap:round;stroke-linejoin:miter;stroke-miterlimit:4;stroke-opacity:1;stroke-dasharray:none"
           sodipodi:type="arc" />
        <path
           transform="matrix(0.66661522,0,0,0.70147907,-4.9132604,5.470423)"
           d="m 55.981978,37.576027 c 0,1.401254 -1.172584,2.537195 -2.61904,2.537195 -1.446456,0 -2.61904,-1.135941 -2.61904,-2.537195 0,-1.401254 1.172584,-2.537195 2.61904,-2.537195 1.446456,0 2.61904,1.135941 2.61904,2.537195 z"
           sodipodi:ry="2.537195"
           sodipodi:rx="2.61904"
           sodipodi:cy="37.576027"
           sodipodi:cx="53.362938"
           id="path3961-51-2"
           style="fill-opacity:1;fill-rule:nonzero;stroke-width:0.69999999;stroke-linecap:round;stroke-linejoin:miter;stroke-miterlimit:4;stroke-opacity:1;stroke-dasharray:none"
           sodipodi:type="arc" />
        <path
           transform="matrix(0.66661522,0,0,0.70147907,-1.6746032,1.5840345)"
           d="m 55.981978,37.576027 c 0,1.401254 -1.172584,2.537195 -2.61904,2.537195 -1.446456,0 -2.61904,-1.135941 -2.61904,-2.537195 0,-1.401254 1.172584,-2.537195 2.61904,-2.537195 1.446456,0 2.61904,1.135941 2.61904,2.537195 z"
           sodipodi:ry="2.537195"
           sodipodi:rx="2.61904"
           sodipodi:cy="37.576027"
           sodipodi:cx="53.362938"
           id="path3961-51-3"
           style="fill-opacity:1;fill-rule:nonzero;stroke-width:0.69999999;stroke-linecap:round;stroke-linejoin:miter;stroke-miterlimit:4;stroke-opacity:1;stroke-dasharray:none"
           sodipodi:type="arc" />
        <path
           transform="matrix(0.66661522,0,0,0.70147907,2.4276953,-1.654623)"
           d="m 55.981978,37.576027 c 0,1.401254 -1.172584,2.537195 -2.61904,2.537195 -1.446456,0 -2.61904,-1.135941 -2.61904,-2.537195 0,-1.401254 1.172584,-2.537195 2.61904,-2.537195 1.446456,0 2.61904,1.135941 2.61904,2.537195 z"
           sodipodi:ry="2.537195"
           sodipodi:rx="2.61904"
           sodipodi:cy="37.576027"
           sodipodi:cx="53.362938"
           id="path3961-51-22"
           style="fill-opacity:1;fill-rule:nonzero;stroke-width:0.69999999;stroke-linecap:round;stroke-linejoin:miter;stroke-miterlimit:4;stroke-opacity:1;stroke-dasharray:none"
           sodipodi:type="arc" />
        <path
           transform="matrix(0.66661522,0,0,0.70147907,6.9618158,-3.8137277)"
           d="m 55.981978,37.576027 c 0,1.401254 -1.172584,2.537195 -2.61904,2.537195 -1.446456,0 -2.61904,-1.135941 -2.61904,-2.537195 0,-1.401254 1.172584,-2.537195 2.61904,-2.537195 1.446456,0 2.61904,1.135941 2.61904,2.537195 z"
           sodipodi:ry="2.537195"
           sodipodi:rx="2.61904"
           sodipodi:cy="37.576027"
           sodipodi:cx="53.362938"
           id="path3961-51-1"
           style="fill-opacity:1;fill-rule:nonzero;stroke-width:0.69999999;stroke-linecap:round;stroke-linejoin:miter;stroke-miterlimit:4;stroke-opacity:1;stroke-dasharray:none"
           sodipodi:type="arc" />
        <path
           transform="matrix(0.66661522,0,0,0.70147907,11.064115,-5.1091898)"
           d="m 55.981978,37.576027 c 0,1.401254 -1.172584,2.537195 -2.61904,2.537195 -1.446456,0 -2.61904,-1.135941 -2.61904,-2.537195 0,-1.401254 1.172584,-2.537195 2.61904,-2.537195 1.446456,0 2.61904,1.135941 2.61904,2.537195 z"
           sodipodi:ry="2.537195"
           sodipodi:rx="2.61904"
           sodipodi:cy="37.576027"
           sodipodi:cx="53.362938"
           id="path3961-51-6"
           style="fill-opacity:1;fill-rule:nonzero;stroke-width:0.69999999;stroke-linecap:round;stroke-linejoin:miter;stroke-miterlimit:4;stroke-opacity:1;stroke-dasharray:none"
           sodipodi:type="arc" />
        <path
           transform="matrix(0.59791134,0,0,0.62918199,-24.581434,25.437764)"
           d="m 55.981978,37.576027 c 0,1.401254 -1.172584,2.537195 -2.61904,2.537195 -1.446456,0 -2.61904,-1.135941 -2.61904,-2.537195 0,-1.401254 1.172584,-2.537195 2.61904,-2.537195 1.446456,0 2.61904,1.135941 2.61904,2.537195 z"
           sodipodi:ry="2.537195"
           sodipodi:rx="2.61904"
           sodipodi:cy="37.576027"
           sodipodi:cx="53.362938"
           id="path3961-51-8"
           style="fill-opacity:1;fill-rule:nonzero;stroke-width:0.69999999;stroke-linecap:round;stroke-linejoin:miter;stroke-miterlimit:4;stroke-opacity:1;stroke-dasharray:none"
           sodipodi:type="arc" />
        <path
           transform="matrix(0.59791134,0,0,0.62918199,-22.412616,20.81019)"
           d="m 55.981978,37.576027 c 0,1.401254 -1.172584,2.537195 -2.61904,2.537195 -1.446456,0 -2.61904,-1.135941 -2.61904,-2.537195 0,-1.401254 1.172584,-2.537195 2.61904,-2.537195 1.446456,0 2.61904,1.135941 2.61904,2.537195 z"
           sodipodi:ry="2.537195"
           sodipodi:rx="2.61904"
           sodipodi:cy="37.576027"
           sodipodi:cx="53.362938"
           id="path3961-51-8-5"
           style="fill-opacity:1;fill-rule:nonzero;stroke-width:0.69999999;stroke-linecap:round;stroke-linejoin:miter;stroke-miterlimit:4;stroke-opacity:1;stroke-dasharray:none"
           sodipodi:type="arc" />
        <path
           transform="matrix(0.59791134,0,0,0.62918199,-15.619718,11.971237)"
           d="m 55.981978,37.576027 c 0,1.401254 -1.172584,2.537195 -2.61904,2.537195 -1.446456,0 -2.61904,-1.135941 -2.61904,-2.537195 0,-1.401254 1.172584,-2.537195 2.61904,-2.537195 1.446456,0 2.61904,1.135941 2.61904,2.537195 z"
           sodipodi:ry="2.537195"
           sodipodi:rx="2.61904"
           sodipodi:cy="37.576027"
           sodipodi:cx="53.362938"
           id="path3961-51-8-7"
           style="fill-opacity:1;fill-rule:nonzero;stroke-width:0.69999999;stroke-linecap:round;stroke-linejoin:miter;stroke-miterlimit:4;stroke-opacity:1;stroke-dasharray:none"
           sodipodi:type="arc" />
        <path
           transform="matrix(0.59791134,0,0,0.62918199,-12.26419,9.1067618)"
           d="m 55.981978,37.576027 c 0,1.401254 -1.172584,2.537195 -2.61904,2.537195 -1.446456,0 -2.61904,-1.135941 -2.61904,-2.537195 0,-1.401254 1.172584,-2.537195 2.61904,-2.537195 1.446456,0 2.61904,1.135941 2.61904,2.537195 z"
           sodipodi:ry="2.537195"
           sodipodi:rx="2.61904"
           sodipodi:cy="37.576027"
           sodipodi:cx="53.362938"
           id="path3961-51-8-6"
           style="fill-opacity:1;fill-rule:nonzero;stroke-width:0.69999999;stroke-linecap:round;stroke-linejoin:miter;stroke-miterlimit:4;stroke-opacity:1;stroke-dasharray:none"
           sodipodi:type="arc" />
        <path
           transform="matrix(0.59791134,0,0,0.62918199,-3.9981335,2.8867595)"
           d="m 55.981978,37.576027 c 0,1.401254 -1.172584,2.537195 -2.61904,2.537195 -1.446456,0 -2.61904,-1.135941 -2.61904,-2.537195 0,-1.401254 1.172584,-2.537195 2.61904,-2.537195 1.446456,0 2.61904,1.135941 2.61904,2.537195 z"
           sodipodi:ry="2.537195"
           sodipodi:rx="2.61904"
           sodipodi:cy="37.576027"
           sodipodi:cx="53.362938"
           id="path3961-51-8-1"
           style="fill-opacity:1;fill-rule:nonzero;stroke-width:0.69999999;stroke-linecap:round;stroke-linejoin:miter;stroke-miterlimit:4;stroke-opacity:1;stroke-dasharray:none"
           sodipodi:type="arc" />
        <path
           transform="matrix(0.59791134,0,0,0.62918199,-0.39707904,0.51333724)"
           d="m 55.981978,37.576027 c 0,1.401254 -1.172584,2.537195 -2.61904,2.537195 -1.446456,0 -2.61904,-1.135941 -2.61904,-2.537195 0,-1.401254 1.172584,-2.537195 2.61904,-2.537195 1.446456,0 2.61904,1.135941 2.61904,2.537195 z"
           sodipodi:ry="2.537195"
           sodipodi:rx="2.61904"
           sodipodi:cy="37.576027"
           sodipodi:cx="53.362938"
           id="path3961-51-8-8"
           style="fill-opacity:1;fill-rule:nonzero;stroke-width:0.69999999;stroke-linecap:round;stroke-linejoin:miter;stroke-miterlimit:4;stroke-opacity:1;stroke-dasharray:none"
           sodipodi:type="arc" />
        <path
           sodipodi:nodetypes="cccccacccccccccc"
           inkscape:connector-curvature="0"
           id="path4246-2"
           d="M 98.606969,52.064826 96.7246,47.072455 94.514862,42.816664 90.504597,37.987977 83.629856,32.0135 c 0,0 -5.581308,-3.910767 -8.593425,-5.483424 -3.641409,-1.901217 -11.37747,-4.735353 -11.37747,-4.735353 l 2.374833,1.297983 4.17395,2.373422 4.665002,2.455266 6.711056,4.173948 4.746845,4.17395 3.519213,3.355528 3.273686,3.682897 4.092107,9.002636 z"
           style="stroke-width:0.5;stroke-linecap:butt;stroke-linejoin:miter;stroke-miterlimit:4;stroke-opacity:1;stroke-dasharray:none" />
        <path
           transform="matrix(-0.59791134,0,0,0.62918199,100.96826,-0.30392734)"
           d="m 55.981978,37.576027 c 0,1.401254 -1.172584,2.537195 -2.61904,2.537195 -1.446456,0 -2.61904,-1.135941 -2.61904,-2.537195 0,-1.401254 1.172584,-2.537195 2.61904,-2.537195 1.446456,0 2.61904,1.135941 2.61904,2.537195 z"
           sodipodi:ry="2.537195"
           sodipodi:rx="2.61904"
           sodipodi:cy="37.576027"
           sodipodi:cx="53.362938"
           id="path3961-51-8-9-7"
           style="fill-opacity:1;fill-rule:nonzero;stroke-width:0.69999999;stroke-linecap:round;stroke-linejoin:miter;stroke-miterlimit:4;stroke-opacity:1;stroke-dasharray:none"
           sodipodi:type="arc" />
        <path

           transform="matrix(-0.44391569,0,0,0.45805053,98.929813,40.090174)"
           d="m 55.981978,37.576027 c 0,1.401254 -1.172584,2.537195 -2.61904,2.537195 -1.446456,0 -2.61904,-1.135941 -2.61904,-2.537195 0,-1.401254 1.172584,-2.537195 2.61904,-2.537195 1.446456,0 2.61904,1.135941 2.61904,2.537195 z"
           sodipodi:ry="2.537195"
           sodipodi:rx="2.61904"
           sodipodi:cy="37.576027"
           sodipodi:cx="53.362938"
           id="path3961-7-1-9"
           style="fill-opacity:1;fill-rule:nonzero;stroke-width:0.69999999;stroke-linecap:round;stroke-linejoin:miter;stroke-miterlimit:4;stroke-opacity:1;stroke-dasharray:none"
           sodipodi:type="arc" />
        <path
           sodipodi:nodetypes="caaaaccaaaacc"
           inkscape:connector-curvature="0"
           id="path4066-5"
           d="m 93.710537,53.220454 c 0,0 -1.725913,-4.456046 -2.987244,-6.468362 -1.50907,-2.407555 -3.489744,-4.49285 -5.407236,-6.589714 -1.254564,-1.371922 -2.583868,-2.679272 -3.978766,-3.908239 -1.050932,-0.925918 -2.193308,-1.742639 -3.298681,-2.602832 -1.046128,-0.81409 -3.154745,-2.4211 -3.154745,-2.4211 l -2.02771,-2.243605 c 0,0 5.868326,3.712456 8.597798,5.848978 1.457014,1.140493 2.822263,2.399532 4.133034,3.705478 1.405826,1.400652 2.781634,2.844292 3.990516,4.418071 1.27628,1.661521 2.441358,3.420903 3.420442,5.273181 0.746276,1.41184 1.852739,4.41807 1.852739,4.41807 z"
           style="stroke-width:0.5;stroke-linecap:butt;stroke-linejoin:miter;stroke-miterlimit:4;stroke-opacity:1;stroke-dasharray:none" />
        <path
           sodipodi:nodetypes="aacaaaaaaccaaaaacaacaacaccacac"
           inkscape:connector-curvature="0"
           id="path4072-4"

           d="m 76.764472,48.444213 c 0.843857,0.185288 1.739132,0.710983 2.125,1.483985 0.661046,1.32426 -0.15625,4.4375 -0.15625,4.4375 0,0 2.602966,-0.69875 3.71875,-0.15625 0.94636,0.460126 1.591918,1.540789 1.84375,2.5625 0.231625,0.939729 0.02933,2.010704 -0.40625,2.875 -0.421011,0.835379 -1.185124,1.50931 -2,1.96875 -0.514974,0.29035 -1.133032,0.51772 -1.71875,0.4375 -1.13459,-0.155393 -1.836204,-1.636142 -2.978907,-1.711459 -0.513262,-0.03383 -1.427343,0.586459 -1.427343,0.586459 l -2.28125,-0.15625 c 0,0 -0.770383,-1.318519 -1.4375,-1.4375 -1.027789,-0.183307 -1.806242,1.428815 -2.84375,1.3125 -1.018694,-0.114206 -1.920618,-0.98978 -2.4375,-1.875 -0.482828,-0.826898 -0.592517,-1.904501 -0.40625,-2.84375 0.215182,-1.085056 0.726026,-2.310473 1.6875,-2.857482 1.403367,-0.798412 4.84375,0.01373 4.84375,0.01373 0,0 -0.03024,-3.155286 1,-4.125 0.708949,-0.6673 1.924053,-0.724035 2.875,-0.515233 z M 76.1133,52.291609 c 0,0 -0.859124,1.683892 -1.505078,2.355339 -0.518866,0.539343 -1.188135,0.920303 -1.84375,1.28125 -0.633853,0.348966 -2,0.84375 -2,0.84375 0,0 1.108419,0.487512 1.5625,0.875 0.754347,0.643719 1.84375,2.334803 1.84375,2.334803 l 1.680229,0.137119 c 0,0 0.821337,-1.101504 1.383704,-1.471922 0.63781,-0.420111 2.153384,-0.782683 2.153384,-0.782683 0,0 -2.027609,-1.56269 -2.623567,-2.654817 C 76.287122,54.334676 76.1133,52.291609 76.1133,52.291609 z"
           style="stroke-width:0.5;stroke-linecap:butt;stroke-linejoin:miter;stroke-miterlimit:4;stroke-opacity:1;stroke-dasharray:none" />
        <path
           transform="matrix(-0.44391569,0,0,0.45805053,120.46322,44.773793)"
           d="m 55.981978,37.576027 c 0,1.401254 -1.172584,2.537195 -2.61904,2.537195 -1.446456,0 -2.61904,-1.135941 -2.61904,-2.537195 0,-1.401254 1.172584,-2.537195 2.61904,-2.537195 1.446456,0 2.61904,1.135941 2.61904,2.537195 z"
           sodipodi:ry="2.537195"
           sodipodi:rx="2.61904"
           sodipodi:cy="37.576027"
           sodipodi:cx="53.362938"
           id="path3961-7-1-2-3"
           style="fill-opacity:1;fill-rule:nonzero;stroke-width:0.69999999;stroke-linecap:round;stroke-linejoin:miter;stroke-miterlimit:4;stroke-opacity:1;stroke-dasharray:none"
           sodipodi:type="arc" />
        <path
           sodipodi:nodetypes="ccccccc"
           inkscape:connector-curvature="0"
           id="path4095-1"
           d="m 74.841713,46.184613 0.07122,-3.774866 1.923045,0.783463 2.635284,-0.641015 -0.07122,4.558329 -2.20794,-1.709374 z"
           style="stroke-width:0.69999999;stroke-linecap:butt;stroke-linejoin:miter;stroke-miterlimit:4;stroke-opacity:1;stroke-dasharray:none" />
        <path
           transform="matrix(-1,0,0,1,130.1277,0.59053379)"
           d="m 55.981978,37.576027 c 0,1.401254 -1.172584,2.537195 -2.61904,2.537195 -1.446456,0 -2.61904,-1.135941 -2.61904,-2.537195 0,-1.401254 1.172584,-2.537195 2.61904,-2.537195 1.446456,0 2.61904,1.135941 2.61904,2.537195 z"
           sodipodi:ry="2.537195"
           sodipodi:rx="2.61904"
           sodipodi:cy="37.576027"
           sodipodi:cx="53.362938"
           id="path3961-76-2"
           style="fill-opacity:1;fill-rule:nonzero;stroke-width:0.5;stroke-linecap:round;stroke-linejoin:miter;stroke-miterlimit:4;stroke-opacity:1;stroke-dasharray:none"
           sodipodi:type="arc" />
        <path
           transform="matrix(-1,0,0,1,146.58041,2.1272117)"
           d="m 55.981978,37.576027 c 0,1.401254 -1.172584,2.537195 -2.61904,2.537195 -1.446456,0 -2.61904,-1.135941 -2.61904,-2.537195 0,-1.401254 1.172584,-2.537195 2.61904,-2.537195 1.446456,0 2.61904,1.135941 2.61904,2.537195 z"
           sodipodi:ry="2.537195"
           sodipodi:rx="2.61904"
           sodipodi:cy="37.576027"
           sodipodi:cx="53.362938"
           id="path3961-1-3"
           style="fill-opacity:1;fill-rule:nonzero;stroke-width:0.5;stroke-linecap:round;stroke-linejoin:miter;stroke-miterlimit:4;stroke-opacity:1;stroke-dasharray:none"
           sodipodi:type="arc" />
        <path
           transform="matrix(-1,0,0,1,135.18459,-7.9153563)"
           d="m 55.981978,37.576027 c 0,1.401254 -1.172584,2.537195 -2.61904,2.537195 -1.446456,0 -2.61904,-1.135941 -2.61904,-2.537195 0,-1.401254 1.172584,-2.537195 2.61904,-2.537195 1.446456,0 2.61904,1.135941 2.61904,2.537195 z"
           sodipodi:ry="2.537195"
           sodipodi:rx="2.61904"
           sodipodi:cy="37.576027"
           sodipodi:cx="53.362938"
           id="path3961-4-3"
           style="fill-opacity:1;fill-rule:nonzero;stroke-width:0.5;stroke-linecap:round;stroke-linejoin:miter;stroke-miterlimit:4;stroke-opacity:1;stroke-dasharray:none"
           sodipodi:type="arc" />
        <path
           transform="matrix(-0.66661522,0,0,0.70147907,109.90317,6.1285633)"
           d="m 55.981978,37.576027 c 0,1.401254 -1.172584,2.537195 -2.61904,2.537195 -1.446456,0 -2.61904,-1.135941 -2.61904,-2.537195 0,-1.401254 1.172584,-2.537195 2.61904,-2.537195 1.446456,0 2.61904,1.135941 2.61904,2.537195 z"
           sodipodi:ry="2.537195"
           sodipodi:rx="2.61904"
           sodipodi:cy="37.576027"
           sodipodi:cx="53.362938"
           id="path3961-51-2-4"
           style="fill-opacity:1;fill-rule:nonzero;stroke-width:0.69999999;stroke-linecap:round;stroke-linejoin:miter;stroke-miterlimit:4;stroke-opacity:1;stroke-dasharray:none"
           sodipodi:type="arc" />
        <path
           transform="matrix(-0.66661522,0,0,0.70147907,106.66452,2.2421749)"
           d="m 55.981978,37.576027 c 0,1.401254 -1.172584,2.537195 -2.61904,2.537195 -1.446456,0 -2.61904,-1.135941 -2.61904,-2.537195 0,-1.401254 1.172584,-2.537195 2.61904,-2.537195 1.446456,0 2.61904,1.135941 2.61904,2.537195 z"
           sodipodi:ry="2.537195"
           sodipodi:rx="2.61904"
           sodipodi:cy="37.576027"
           sodipodi:cx="53.362938"
           id="path3961-51-3-1"
           style="fill-opacity:1;fill-rule:nonzero;stroke-width:0.69999999;stroke-linecap:round;stroke-linejoin:miter;stroke-miterlimit:4;stroke-opacity:1;stroke-dasharray:none"
           sodipodi:type="arc" />
        <path
           transform="matrix(-0.66661522,0,0,0.70147907,102.56222,-0.67061125)"
           d="m 55.981978,37.576027 c 0,1.401254 -1.172584,2.537195 -2.61904,2.537195 -1.446456,0 -2.61904,-1.135941 -2.61904,-2.537195 0,-1.401254 1.172584,-2.537195 2.61904,-2.537195 1.446456,0 2.61904,1.135941 2.61904,2.537195 z"
           sodipodi:ry="2.537195"
           sodipodi:rx="2.61904"
           sodipodi:cy="37.576027"
           sodipodi:cx="53.362938"
           id="path3961-51-22-1"
           style="fill-opacity:1;fill-rule:nonzero;stroke-width:0.69999999;stroke-linecap:round;stroke-linejoin:miter;stroke-miterlimit:4;stroke-opacity:1;stroke-dasharray:none"
           sodipodi:type="arc" />
        <path
           transform="matrix(-0.66661522,0,0,0.70147907,98.028093,-3.481459)"
           d="m 55.981978,37.576027 c 0,1.401254 -1.172584,2.537195 -2.61904,2.537195 -1.446456,0 -2.61904,-1.135941 -2.61904,-2.537195 0,-1.401254 1.172584,-2.537195 2.61904,-2.537195 1.446456,0 2.61904,1.135941 2.61904,2.537195 z"
           sodipodi:ry="2.537195"
           sodipodi:rx="2.61904"
           sodipodi:cy="37.576027"
           sodipodi:cx="53.362938"
           id="path3961-51-1-3"
           style="fill-opacity:1;fill-rule:nonzero;stroke-width:0.69999999;stroke-linecap:round;stroke-linejoin:miter;stroke-miterlimit:4;stroke-opacity:1;stroke-dasharray:none"
           sodipodi:type="arc" />
        <path
           transform="matrix(-0.66661522,0,0,0.70147907,93.925794,-4.776922)"
           d="m 55.981978,37.576027 c 0,1.401254 -1.172584,2.537195 -2.61904,2.537195 -1.446456,0 -2.61904,-1.135941 -2.61904,-2.537195 0,-1.401254 1.172584,-2.537195 2.61904,-2.537195 1.446456,0 2.61904,1.135941 2.61904,2.537195 z"
           sodipodi:ry="2.537195"
           sodipodi:rx="2.61904"
           sodipodi:cy="37.576027"
           sodipodi:cx="53.362938"
           id="path3961-51-6-8"
           style="fill-opacity:1;fill-rule:nonzero;stroke-width:0.69999999;stroke-linecap:round;stroke-linejoin:miter;stroke-miterlimit:4;stroke-opacity:1;stroke-dasharray:none"
           sodipodi:type="arc" />
        <path
           transform="matrix(-0.59791134,0,0,0.62918199,129.40841,26.584712)"
           d="m 55.981978,37.576027 c 0,1.401254 -1.172584,2.537195 -2.61904,2.537195 -1.446456,0 -2.61904,-1.135941 -2.61904,-2.537195 0,-1.401254 1.172584,-2.537195 2.61904,-2.537195 1.446456,0 2.61904,1.135941 2.61904,2.537195 z"
           sodipodi:ry="2.537195"
           sodipodi:rx="2.61904"
           sodipodi:cy="37.576027"
           sodipodi:cx="53.362938"
           id="path3961-51-8-74"
           style="fill-opacity:1;fill-rule:nonzero;stroke-width:0.69999999;stroke-linecap:round;stroke-linejoin:miter;stroke-miterlimit:4;stroke-opacity:1;stroke-dasharray:none"
           sodipodi:type="arc" />
        <path
           transform="matrix(-0.59791134,0,0,0.62918199,127.23959,21.957138)"
           d="m 55.981978,37.576027 c 0,1.401254 -1.172584,2.537195 -2.61904,2.537195 -1.446456,0 -2.61904,-1.135941 -2.61904,-2.537195 0,-1.401254 1.172584,-2.537195 2.61904,-2.537195 1.446456,0 2.61904,1.135941 2.61904,2.537195 z"
           sodipodi:ry="2.537195"
           sodipodi:rx="2.61904"
           sodipodi:cy="37.576027"
           sodipodi:cx="53.362938"
           id="path3961-51-8-5-2"
           style="fill-opacity:1;fill-rule:nonzero;stroke-width:0.69999999;stroke-linecap:round;stroke-linejoin:miter;stroke-miterlimit:4;stroke-opacity:1;stroke-dasharray:none"
           sodipodi:type="arc" />
        <path
           transform="matrix(-0.59791134,0,0,0.62918199,120.44669,13.118185)"
           d="m 55.981978,37.576027 c 0,1.401254 -1.172584,2.537195 -2.61904,2.537195 -1.446456,0 -2.61904,-1.135941 -2.61904,-2.537195 0,-1.401254 1.172584,-2.537195 2.61904,-2.537195 1.446456,0 2.61904,1.135941 2.61904,2.537195 z"
           sodipodi:ry="2.537195"
           sodipodi:rx="2.61904"
           sodipodi:cy="37.576027"
           sodipodi:cx="53.362938"
           id="path3961-51-8-7-7"
           style="fill-opacity:1;fill-rule:nonzero;stroke-width:0.69999999;stroke-linecap:round;stroke-linejoin:miter;stroke-miterlimit:4;stroke-opacity:1;stroke-dasharray:none"
           sodipodi:type="arc" />
        <path
           transform="matrix(-0.59791134,0,0,0.62918199,117.09116,10.25371)"
           d="m 55.981978,37.576027 c 0,1.401254 -1.172584,2.537195 -2.61904,2.537195 -1.446456,0 -2.61904,-1.135941 -2.61904,-2.537195 0,-1.401254 1.172584,-2.537195 2.61904,-2.537195 1.446456,0 2.61904,1.135941 2.61904,2.537195 z"
           sodipodi:ry="2.537195"
           sodipodi:rx="2.61904"
           sodipodi:cy="37.576027"
           sodipodi:cx="53.362938"
           id="path3961-51-8-6-7"
           style="fill-opacity:1;fill-rule:nonzero;stroke-width:0.69999999;stroke-linecap:round;stroke-linejoin:miter;stroke-miterlimit:4;stroke-opacity:1;stroke-dasharray:none"
           sodipodi:type="arc" />
        <path
           transform="matrix(-0.59791134,0,0,0.62918199,108.82511,4.0337077)"
           d="m 55.981978,37.576027 c 0,1.401254 -1.172584,2.537195 -2.61904,2.537195 -1.446456,0 -2.61904,-1.135941 -2.61904,-2.537195 0,-1.401254 1.172584,-2.537195 2.61904,-2.537195 1.446456,0 2.61904,1.135941 2.61904,2.537195 z"
           sodipodi:ry="2.537195"
           sodipodi:rx="2.61904"
           sodipodi:cy="37.576027"
           sodipodi:cx="53.362938"
           id="path3961-51-8-1-9"
           style="fill-opacity:1;fill-rule:nonzero;stroke-width:0.69999999;stroke-linecap:round;stroke-linejoin:miter;stroke-miterlimit:4;stroke-opacity:1;stroke-dasharray:none"
           sodipodi:type="arc" />
        <path
           transform="matrix(-0.59791134,0,0,0.62918199,105.22405,1.6602857)"
           d="m 55.981978,37.576027 c 0,1.401254 -1.172584,2.537195 -2.61904,2.537195 -1.446456,0 -2.61904,-1.135941 -2.61904,-2.537195 0,-1.401254 1.172584,-2.537195 2.61904,-2.537195 1.446456,0 2.61904,1.135941 2.61904,2.537195 z"
           sodipodi:ry="2.537195"
           sodipodi:rx="2.61904"
           sodipodi:cy="37.576027"
           sodipodi:cx="53.362938"
           id="path3961-51-8-8-3"
           style="fill-opacity:1;fill-rule:nonzero;stroke-width:0.69999999;stroke-linecap:round;stroke-linejoin:miter;stroke-miterlimit:4;stroke-opacity:1;stroke-dasharray:none"
           sodipodi:type="arc" />
        <path
           sodipodi:nodetypes="aaaacaaacaaaaaaaaa"
           inkscape:connector-curvature="0"
           id="path4070-9"
           d="m 97.368784,65.140766 c 0.281641,-0.321686 0.252085,-0.93733 0,-1.282665 -0.367685,-0.503696 -1.249422,-0.245486 -1.781868,-0.570144 -0.37285,-0.227345 -0.69098,-0.558559 -0.926335,-0.926405 -0.259181,-0.405085 -0.498779,-1.353749 -0.498779,-1.353749 0,0 0.996807,-0.382833 1.496761,-0.570144 0.900781,-0.337484 1.997293,-0.349239 2.70785,-0.997629 0.816217,-0.744806 1.100994,-1.936549 1.425184,-2.992886 0.324273,-1.0566 0.499203,-3.277924 0.499203,-3.277924 0,0 -0.996387,0.290137 -1.496761,0.427415 -0.900122,0.246947 -1.966683,0.145486 -2.707921,0.712732 -0.870357,0.666057 -0.76589,2.187617 -1.638714,2.850439 -0.917669,0.696877 -2.489535,0.08801 -3.34943,0.85504 -0.796677,0.710638 -1.193326,1.926645 -1.140147,2.992887 0.05821,1.167046 0.63057,2.437432 1.567702,3.135405 0.773606,0.57618 1.985179,0.07243 2.850509,0.498637 0.346884,0.170853 0.486115,0.667987 0.85497,0.784028 0.685763,0.21574 1.66422,0.255851 2.137776,-0.285037 z"
           style="stroke-width:0.5;stroke-linecap:butt;stroke-linejoin:miter;stroke-miterlimit:4;stroke-opacity:1;stroke-dasharray:none" />
        <path
           sodipodi:nodetypes="cacaaaaaccaaaaaaasscaaaacc"
           inkscape:connector-curvature="0"
           id="path3992-8"
           d="m 58.404623,46.506958 c 0,0 0.03886,-6.796228 -0.156323,-10.186521 -0.200564,-3.483818 -1.04168,-10.416805 -1.04168,-10.416805 0,0 1.571803,0.0096 2.314845,0.231485 1.679732,0.50159 3.249574,1.39491 4.663071,2.431788 1.465858,1.075287 2.696967,2.456086 3.857676,3.855276 1.003495,1.209675 1.979991,2.476292 2.659672,3.893456 0.575446,1.199827 0.944312,2.506574 1.161024,3.819495 0.327219,1.982409 0.193303,6.024599 0.193303,6.024599 l 1.0071,-0.0012 c 0,0 0.380001,-3.952682 0.115742,-5.902856 -0.199972,-1.47575 -0.645345,-2.932031 -1.273165,-4.282464 -0.681172,-1.465193 -1.652849,-2.789134 -2.662072,-4.05098 -0.971401,-1.214558 -2.067189,-2.336012 -3.240783,-3.356526 -1.055638,-0.917944 -2.204341,-1.732708 -3.394707,-2.467569 -0.674066,-0.416129 -1.374891,-0.798584 -2.110571,-1.092358 -0.611868,-0.244333 -1.251073,-0.42749 -1.898337,-0.55049 -0.526109,-0.09998 -1.272348,-0.136372 -1.599579,-0.149736 -0.327231,-0.01336 -0.622762,-2.064995 -0.836486,-2.067232 -0.213724,-0.0022 -1.082219,-0.0011 -1.082219,-0.0011 0,0 0.507689,2.210303 0.687895,3.328987 0.325801,2.022518 0.510846,4.065751 0.709237,6.104714 0.156735,1.610839 0.278112,3.225212 0.379927,4.840453 0.102078,1.619413 0.174418,3.240752 0.231485,4.862375 0.06018,1.710066 0.116942,5.132041 0.116942,5.132041 z"
           style="stroke-width:0.5;stroke-linecap:butt;stroke-linejoin:miter;stroke-miterlimit:4;stroke-opacity:1;stroke-dasharray:none" />
      </g>
      <path
         style="stroke-width:1px;stroke-linecap:butt;stroke-linejoin:miter;stroke-opacity:1"
         d="m -76.218562,116.3221 -1.9144,-11.75988 c 0,0 -8.091555,-3.59889 -12.306855,-4.922743 -5.000031,-1.5703 -10.143773,-2.70528 -15.315193,-3.55532 -4.60969,-0.7577 -9.2808,-1.57406 -13.94777,-1.36742 -6.39457,0.28313 -12.96692,1.0818 -18.87051,3.55531 -6.04091,2.531043 -11.58135,6.505783 -16.13566,11.212913 -3.85057,3.9798 -6.85222,8.85418 -9.02502,13.94777 -2.0215,4.73891 -3.10365,9.90949 -3.55532,15.04171 -0.42425,4.82068 -0.0728,9.73858 0.82046,14.49474 0.76096,4.05165 1.87644,8.12901 3.8288,11.75988 2.42732,4.51415 5.82542,8.53585 9.572,12.03337 3.64139,3.39933 7.81345,6.3276 12.30685,8.47806 4.03263,1.92994 8.42993,3.18392 12.85383,3.8288 5.50272,0.80214 11.16603,0.70035 16.68262,0 5.79073,-0.73515 11.436409,-2.47686 16.956114,-4.37577 6.485905,-2.2313 18.870511,-8.20457 18.870511,-8.20457 l 0,-15.3152 c 0,0 -1.8754,5.08694 -3.281828,7.38411 -1.286092,2.10063 -2.822314,4.09125 -4.649257,5.7432 -2.344314,2.11976 -5.094814,3.80168 -7.931084,5.19623 -4.242985,2.08622 -8.770226,3.69375 -13.400796,4.64926 -3.6703,0.75736 -7.46529,0.82744 -11.21291,0.82045 -3.56581,-0.007 -7.21081,0.0611 -10.66594,-0.82045 -3.87455,-0.98856 -7.63305,-2.67392 -10.93943,-4.92275 -3.89134,-2.64668 -7.19032,-6.16167 -10.11897,-9.84548 -2.5199,-3.16966 -4.82921,-6.61593 -6.29017,-10.39246 -1.87708,-4.8522 -2.76315,-10.11835 -3.00834,-15.31519 -0.25906,-5.49089 -0.006,-11.16453 1.64091,-16.40914 1.62578,-5.17857 4.62768,-9.9145 7.93109,-14.22126 2.70728,-3.52958 5.79899,-6.94231 9.57199,-9.29851 4.10905,-2.56605 8.9316,-3.934953 13.67429,-4.922743 4.11407,-0.85686 8.39277,-1.17274 12.58034,-0.82046 5.50844,0.4634 10.9911,1.80611 16.135652,3.828803 3.609442,1.41913 7.247698,3.13594 10.118969,5.7432 3.051979,2.77135 7.110627,10.11897 7.110627,10.11897 z"
         id="path4854"
         inkscape:connector-curvature="0"
         sodipodi:nodetypes="ccaaaaaaaaaaaaaaccaaaaaaaaaaaaaaaaacc" />
      <path
         style="stroke-width:1px;stroke-linecap:butt;stroke-linejoin:miter;stroke-opacity:1"
         d="m -31.093427,117.41605 1.64091,-1.64092 -1.36743,-11.21291 c 0,0 -10.63862,-4.20163 -16.13565,-5.743203 -6.9031,-1.93588 -13.90898,-3.84079 -21.058396,-4.37577 -4.916587,-0.367899 -9.917328,-0.061 -14.768225,0.82046 -4.79418,0.87116 -9.529626,2.32076 -13.947769,4.37577 -4.310913,2.005143 -8.572913,4.397263 -12.033373,7.657603 -3.84893,3.62636 -6.94224,8.1196 -9.29851,12.85382 -2.63399,5.29223 -4.48012,11.08816 -5.19623,16.95611 -0.60828,4.98438 -0.18895,10.12286 0.82046,15.04171 1.01456,4.94392 2.50382,9.95247 5.19623,14.22126 3.33584,5.28895 8.06054,9.73628 13.12731,13.40079 4.691005,3.39274 10.009811,6.11087 15.588683,7.65761 6.259445,1.73542 12.933672,2.03149 19.417482,1.64091 4.925618,-0.29672 9.843938,-1.35917 14.494738,-3.00834 5.80262,-2.05761 16.40914,-8.47806 16.40914,-8.47806 0,0 0.025,4.93921 -0.27349,7.38411 -0.7563,6.19376 -1.70729,12.4555 -3.82879,18.32354 -1.7193,4.75556 -4.20961,9.25889 -7.11063,13.4008 -2.88827,4.1237 -6.35276,7.87186 -10.11897,11.21291 -2.83811,2.51772 -5.987924,4.71061 -9.298512,6.56365 -3.801701,2.12793 -7.8208,3.95781 -12.008154,5.16077 -4.433084,1.27355 -9.064266,1.96891 -13.674282,2.11695 -4.706087,0.15112 -9.460765,-0.2951 -14.069135,-1.26103 -4.76677,-0.99913 -9.40541,-2.6614 -13.85162,-4.64926 -4.88256,-2.18295 -9.72362,-4.65064 -13.94777,-7.93108 -2.80061,-2.17494 -5.176,-4.88307 -7.38411,-7.6576 -2.91291,-3.66012 -7.6576,-11.75988 -7.6576,-11.75988 l 2.18789,21.60537 c 0,0 9.50997,5.24996 14.49474,7.38411 6.57316,2.81419 13.21829,5.75018 20.23793,7.11063 7.444,1.44269 15.169216,1.66469 22.724531,1.02301 5.011495,-0.42563 9.978562,-1.5996 14.74301,-3.2109 4.481422,-1.51558 8.80555,-3.5689 12.853822,-6.01668 4.89914,-2.96226 9.5609,-6.41042 13.67429,-10.39246 4.05085,-3.92151 7.62664,-8.3786 10.66594,-13.12731 3.01096,-4.70443 5.53455,-9.77135 7.38411,-15.04171 1.66987,-4.75832 3.28183,-14.76823 3.28183,-14.76823 l 0.82045,-41.56982 -15.86216,0 5.46971,4.10229 0.82046,20.23794 c 0,0 -1.76677,4.47425 -3.28183,6.29017 -2.6635,3.19242 -6.24951,5.57077 -9.84548,7.6576 -2.89917,1.68245 -6.05127,2.99745 -9.29852,3.8288 -4.79828,1.22843 -9.823239,1.92321 -14.768223,1.64091 -3.267633,-0.18655 -6.490995,-1.08352 -9.571998,-2.18789 -3.645895,-1.30686 -7.305245,-2.85751 -10.392455,-5.19622 -4.320996,-3.27336 -7.986087,-7.48764 -10.939427,-12.03337 -2.71304,-4.17587 -4.90814,-8.81943 -6.01668,-13.67429 -1.17771,-5.15778 -1.27614,-10.62212 -0.54698,-15.86216 0.73906,-5.31113 2.55831,-10.50233 4.92275,-15.3152 2.34143,-4.76604 5.19379,-9.45047 9.025024,-13.12731 2.719056,-2.60948 6.130484,-4.48091 9.571998,-6.01669 3.636366,-1.62273 7.537446,-2.769773 11.486397,-3.281823 4.430769,-0.57452 8.989208,-0.43341 13.400794,0.27348 5.83702,0.9353 11.51643,2.882053 16.95611,5.196233 3.45465,1.4697 6.983,3.04057 9.84549,5.46971 2.57272,2.18323 6.29017,7.93109 6.29017,7.93109 z"
         id="path4856"
         inkscape:connector-curvature="0"
         sodipodi:nodetypes="cccaaaaaaaaaaaaacaaaaaaaaaaaccaaaaaaaacccccaaaaaaaaaaaaaaaac" />
      <path
         style="stroke-width:1;stroke-linecap:butt;stroke-linejoin:miter;stroke-miterlimit:4;stroke-opacity:1;stroke-dasharray:none"
         d="m -134.36654,191.07946 4.00694,0.0786 4.00694,0.0786 c 0,0 -0.79186,0.36253 -1.02162,0.7071 -0.20806,0.31203 -0.23546,1.10019 -0.23546,1.10019 l 8.64232,12.41317 9.11363,-12.25594 c 0,0 0.17073,-0.92457 3.4e-4,-1.33603 -0.11337,-0.27375 -0.62859,-0.62849 -0.62859,-0.62849 l 4.08551,0 -11.7064,15.47793 11.7064,16.89184 2.19978,2.04276 -8.01387,-0.0784 c 0,0 0.72312,-0.54053 0.86439,-0.94281 0.13046,-0.37152 -0.0786,-1.17866 -0.0786,-1.17866 l -9.27076,-13.12032 -10.3709,13.35568 c 0,0 -0.13052,0.78273 -3.5e-4,1.13959 0.11148,0.30561 0.62859,0.74652 0.62859,0.74652 l -4.24254,-0.0787 13.04219,-16.49916 -10.68517,-16.02755 c 0,0 -0.43946,-0.60547 -0.70691,-0.86431 -0.4028,-0.38985 -1.33584,-1.02155 -1.33584,-1.02155 z"
         id="path4860"
         inkscape:connector-curvature="0"
         sodipodi:nodetypes="cccacccaccccccacccaccccac" />
      <path
         style="stroke-width:1;stroke-linecap:butt;stroke-linejoin:miter;stroke-miterlimit:4;stroke-opacity:1;stroke-dasharray:none"
         d="m -102.82053,191.28164 7.075468,0 -0.550314,0.9434 10.534591,26.72956 11.163522,-26.17924 -0.393082,-0.86478 -0.943396,-0.62893 4.95283,-0.0786 -1.336478,1.10063 -14.544025,33.80503 -13.757866,-32.78302 c 0,0 -0.70462,-0.81553 -1.10063,-1.17925 -0.34363,-0.31561 -1.10062,-0.8648 -1.10062,-0.8648 z"
         id="path4862"
         inkscape:connector-curvature="0"
         sodipodi:nodetypes="cccccccccccac" />
      <path
         style="stroke-width:1;stroke-linecap:butt;stroke-linejoin:miter;stroke-miterlimit:4;stroke-opacity:1;stroke-dasharray:none"
         d="m -68.072106,191.12441 7.468549,0.0786 c 0,0 -0.805858,0.61733 -1.100622,1.02201 -0.255391,0.35063 -0.550321,1.17925 -0.550321,1.17925 l 0.157216,29.79559 c 0,0 0.351121,0.83098 0.628927,1.17925 0.324371,0.40663 1.17925,1.02201 1.17925,1.02201 l -7.783019,0.0786 c 0,0 0.730869,-0.63816 1.022011,-1.02202 0.290712,-0.38329 0.707548,-1.25786 0.707548,-1.25786 l 0.15723,-29.87421 c 0,0 -0.389321,-0.65112 -0.628932,-0.9434 -0.375924,-0.45855 -1.257837,-1.25782 -1.257837,-1.25782 z"
         id="path4864"
         inkscape:connector-curvature="0"
         sodipodi:nodetypes="ccaccaccaccac" />
    </g>
    <path
       sodipodi:nodetypes="ccccccc"
       inkscape:connector-curvature="0"
       id="path5456"
       d="m 71.302237,189.26599 9.793693,-3.78276 -1.606373,-0.8291 -1.399099,-0.88091 -9.949149,3.9382 1.761828,0.46637 z"
       style="stroke:none" />
    <path
       sodipodi:nodetypes="ccccccc"
       inkscape:connector-curvature="0"
       id="path5458"
       d="m 72.20906,102.65138 9.534601,2.97956 -1.865465,0.80319 -2.176376,0.98455 -8.57596,-3.44593 2.04683,-0.62182 z"
       style="fill-opacity:1;stroke:none" />
  </g>
<!-- BANDEROLL "ROYAL STRAIGHT" -->
<!--<path
	stroke="black"
	fill="white"
	d="M 55 135 m -77, -21 a 80 25 0 0 1 154 0"/>-->
</g>
</svg>

